<svg xmlns="http://www.w3.org/2000/svg" width="1600" height="900" viewBox="0 0 1600 900">
  <defs>
    <marker id="a" markerWidth="12" markerHeight="12" refX="10" refY="6" orient="auto"><path d="M0 0 12 6 0 12Z" fill="#3b8190"/></marker>
    <style>
      .title{font:700 40px Arial,sans-serif;fill:#102d3d}.sub{font:400 20px Arial,sans-serif;fill:#607580}
      .h{font:700 28px Arial,sans-serif;fill:#fff}.t{font:500 20px Arial,sans-serif;fill:#173846}.s{font:400 17px Arial,sans-serif;fill:#607580}
    </style>
  </defs>
  <rect width="1600" height="900" fill="#f5f7f8"/>
  <text x="80" y="78" class="title">Hybrid RAG: Structured Matching + Semantic Retrieval</text>
  <text x="80" y="116" class="sub">Use the right retrieval strategy for each type of industrial knowledge</text>
  <rect x="70" y="170" width="500" height="560" rx="26" fill="#163f55"/>
  <text x="320" y="226" text-anchor="middle" class="h">LOCAL STRUCTURED KNOWLEDGE</text>
  <text x="320" y="260" text-anchor="middle" class="s" fill="#d9e8ed">Deterministic | Direction-aware | Exact filters</text>
  <g>
    <rect x="110" y="300" width="195" height="120" rx="16" fill="#fff"/><path d="M140 334H274M140 363H274M140 392H235" stroke="#3b8190" stroke-width="7" stroke-linecap="round"/>
    <text x="207" y="450" text-anchor="middle" class="t" fill="#fff">FMEA TABLES</text>
    <rect x="335" y="300" width="195" height="120" rx="16" fill="#fff"/><path d="M370 335H495M370 367H470M370 399H505" stroke="#738f9b" stroke-width="7" stroke-linecap="round"/>
    <text x="432" y="450" text-anchor="middle" class="t" fill="#fff">WORK TICKETS</text>
    <rect x="110" y="490" width="195" height="120" rx="16" fill="#fff"/>
    <g fill="#3b8190"><circle cx="160" cy="545" r="15"/><circle cx="207" cy="545" r="15"/><circle cx="254" cy="545" r="15"/></g>
    <path d="M160 575H254" stroke="#f29c46" stroke-width="7"/><text x="207" y="640" text-anchor="middle" class="t" fill="#fff">SYMPTOM SIGNS</text>
    <rect x="335" y="490" width="195" height="120" rx="16" fill="#fff"/><circle cx="432" cy="550" r="38" fill="none" stroke="#3b8190" stroke-width="10"/>
    <path d="M432 512V588M394 550H470" stroke="#3b8190" stroke-width="7"/><text x="432" y="640" text-anchor="middle" class="t" fill="#fff">SENSOR META</text>
  </g>
  <rect x="1030" y="170" width="500" height="560" rx="26" fill="#387f8b"/>
  <text x="1280" y="226" text-anchor="middle" class="h">DIFY SEMANTIC KNOWLEDGE</text>
  <text x="1280" y="260" text-anchor="middle" class="s" fill="#e5f1f3">Natural language | Vector recall | Mechanisms</text>
  <g fill="#fff">
    <path d="M1085 315Q1165 280 1245 315V465Q1165 430 1085 465Z"/>
    <path d="M1245 315Q1325 280 1405 315V465Q1325 430 1245 465Z" opacity=".92"/>
    <rect x="1140" y="520" width="280" height="125"/>
  </g>
  <g stroke="#68aab2" stroke-width="7" stroke-linecap="round">
    <path d="M1115 345H1205M1115 375H1190M1115 405H1210M1280 345H1370M1280 375H1355M1280 405H1380"/>
    <path d="M1180 555H1380M1180 590H1340M1180 625H1365"/>
  </g>
  <text x="1245" y="495" text-anchor="middle" class="t" fill="#fff">MANUALS + PAPERS</text>
  <text x="1280" y="680" text-anchor="middle" class="t" fill="#fff">CASES + MECHANISMS</text>
  <g stroke="#3b8190" stroke-width="5" fill="none" marker-end="url(#a)"><path d="M570 450H720"/><path d="M1030 450H880"/></g>
  <circle cx="800" cy="450" r="118" fill="#fff" stroke="#f29c46" stroke-width="8"/>
  <circle cx="800" cy="450" r="72" fill="#173f55"/>
  <path d="M765 450 790 475 838 420" fill="none" stroke="#fff" stroke-width="12" stroke-linecap="round" stroke-linejoin="round"/>
  <text x="800" y="600" text-anchor="middle" class="t">FUSE | DEDUPE | RANK</text>
  <text x="800" y="632" text-anchor="middle" class="s">Cases and FMEA create root-cause candidates</text>
  <text x="800" y="660" text-anchor="middle" class="s">Manuals provide supporting evidence</text>
  <path d="M800 692V790" stroke="#3b8190" stroke-width="5" marker-end="url(#a)"/>
  <rect x="600" y="790" width="400" height="70" rx="18" fill="#f29c46"/>
  <text x="800" y="835" text-anchor="middle" class="h">TRACEABLE DIAGNOSIS</text>
</svg>
